<svg xmlns="http://www.w3.org/2000/svg" viewBox="0 0 115.98 62.44"><defs><style>.cls-1{fill:#46a748;}.cls-2{fill:#9c9ea1;}.cls-3{fill:#194e82;}.cls-4{fill:#ed1b34;}.cls-5{fill:#4d4d4f;}</style></defs><title>Asset 2</title><g id="Layer_2" data-name="Layer 2"><g id="Layer_1-2" data-name="Layer 1"><path class="cls-1" d="M78.39,5.64a14.18,14.18,0,0,0-4,.58,13.79,13.79,0,0,1,0,26.49,14.12,14.12,0,0,0,4,.59,13.83,13.83,0,1,0,0-27.66"/><path class="cls-2" d="M78.4,30.75a13.73,13.73,0,0,1,0-22.56,14.13,14.13,0,0,0-4.06-2,13.79,13.79,0,0,0,0,26.49,14,14,0,0,0,4.06-2"/><path class="cls-3" d="M54.69,0A19.89,19.89,0,0,0,49,.83a19.4,19.4,0,0,1,0,37.27,20,20,0,0,0,5.69.83A19.58,19.58,0,0,0,74.39,19.46,19.58,19.58,0,0,0,54.69,0"/><path class="cls-2" d="M54.71,35.33a19.33,19.33,0,0,1,0-31.74A19.75,19.75,0,0,0,49,.82,19.41,19.41,0,0,0,49,38.1a19.76,19.76,0,0,0,5.7-2.77"/><path class="cls-4" d="M33.65,5.64a14.19,14.19,0,0,0-4,.58,13.79,13.79,0,0,1,0,26.49,14.15,14.15,0,0,0,4,.59,13.83,13.83,0,1,0,0-27.66"/><path class="cls-2" d="M33.66,30.75a13.72,13.72,0,0,1,0-22.56,14.18,14.18,0,0,0-4.06-2,13.79,13.79,0,0,0,0,26.49,14,14,0,0,0,4.06-2"/><rect class="cls-5" y="48.9" width="2.13" height="13.27"/><path class="cls-5" d="M13.5,53.25a3.33,3.33,0,0,0-1.36-1A5.79,5.79,0,0,0,10,52a15.79,15.79,0,0,0-2.49.17c-.72.11-1.3.22-1.73.32H5.74v9.7H7.8V53.86l.26,0,.52-.07.62,0a4.93,4.93,0,0,1,1.85.16,1.64,1.64,0,0,1,.77.55,2.46,2.46,0,0,1,.42,1,8,8,0,0,1,.13,1.53v5.22h2.06v-5.6a7.75,7.75,0,0,0-.21-1.85,3.58,3.58,0,0,0-.72-1.46"/><path class="cls-5" d="M24.6,60.49q-.27.06-.73.12a10.86,10.86,0,0,1-1.28.06,3.18,3.18,0,0,1-2.37-.91,3.58,3.58,0,0,1-.89-2.6,5.86,5.86,0,0,1,.16-1.4A3.16,3.16,0,0,1,20,54.66a2.49,2.49,0,0,1,.91-.73,3.16,3.16,0,0,1,1.35-.27,3.9,3.9,0,0,1,1.39.24,4,4,0,0,1,.94.47Zm0-7.94a6.23,6.23,0,0,0-.93-.37A5.34,5.34,0,0,0,22,51.95a5.18,5.18,0,0,0-2.05.39,4.22,4.22,0,0,0-1.52,1.08,4.64,4.64,0,0,0-.94,1.65,6.67,6.67,0,0,0-.32,2.1,5.93,5.93,0,0,0,.38,2.18A4.59,4.59,0,0,0,18.66,61a4.86,4.86,0,0,0,1.69,1,6.44,6.44,0,0,0,2.22.36,14.19,14.19,0,0,0,2.35-.17c.67-.11,1.24-.23,1.67-.34l.06,0V47.32l-2.05.33Z"/><path class="cls-5" d="M37.47,57.17a4,4,0,0,1-.78,2.58,2.84,2.84,0,0,1-4.23,0,4.66,4.66,0,0,1,0-5.16,2.84,2.84,0,0,1,4.23,0,4,4,0,0,1,.78,2.58m.73-3.8a4.62,4.62,0,0,0-1.6-1.07,5.63,5.63,0,0,0-4,0A4.62,4.62,0,0,0,31,53.37a4.86,4.86,0,0,0-1,1.66,6.41,6.41,0,0,0,0,4.28A4.93,4.93,0,0,0,31,61,4.63,4.63,0,0,0,32.56,62a5.62,5.62,0,0,0,4,0A4.66,4.66,0,0,0,38.2,61a4.9,4.9,0,0,0,1-1.66,6.36,6.36,0,0,0,0-4.28,4.86,4.86,0,0,0-1-1.66"/><path class="cls-5" d="M50.27,53.25a3.32,3.32,0,0,0-1.36-1A5.78,5.78,0,0,0,46.79,52a15.84,15.84,0,0,0-2.49.17c-.71.11-1.29.22-1.73.32H42.5v9.7h2.06V53.86l.26,0,.52-.07.62,0a5,5,0,0,1,1.85.16,1.64,1.64,0,0,1,.77.55,2.43,2.43,0,0,1,.42,1,7.92,7.92,0,0,1,.13,1.53v5.22h2.06v-5.6A8,8,0,0,0,51,54.71a3.58,3.58,0,0,0-.72-1.46"/><path class="cls-5" d="M58.83,53.59a2.2,2.2,0,0,1,1.75.73,2.72,2.72,0,0,1,.62,1.81h-5a4,4,0,0,1,.23-.88,2.74,2.74,0,0,1,.52-.84,2.54,2.54,0,0,1,1.92-.82m0-1.66a5.24,5.24,0,0,0-1.81.33,4.54,4.54,0,0,0-1.57,1,4.79,4.79,0,0,0-1.09,1.65A6,6,0,0,0,54,57.19a6.52,6.52,0,0,0,.32,2.08,4.41,4.41,0,0,0,1,1.65A4.56,4.56,0,0,0,56.95,62a6.72,6.72,0,0,0,2.41.39,9.35,9.35,0,0,0,2-.19,6,6,0,0,0,1.22-.37l.06,0-.29-1.64-.1,0a6.38,6.38,0,0,1-1,.3,7.31,7.31,0,0,1-1.65.16A3.58,3.58,0,0,1,57,59.91a3.36,3.36,0,0,1-.92-2.18h7.2v-.08a2.13,2.13,0,0,0,0-.34V57a5.52,5.52,0,0,0-1.16-3.83,4.3,4.3,0,0,0-3.33-1.27"/><path class="cls-5" d="M72.2,57.48a4.38,4.38,0,0,0-1-.61c-.4-.17-.85-.35-1.35-.52s-.69-.24-1-.36a3.59,3.59,0,0,1-.67-.36,1.32,1.32,0,0,1-.38-.42,1.13,1.13,0,0,1-.12-.53.87.87,0,0,1,.54-.84,3,3,0,0,1,1.34-.28,6.57,6.57,0,0,1,1.54.16,4.86,4.86,0,0,1,.94.31l.1,0,.39-1.69-.07,0L72,52.23l-.68-.14c-.25,0-.53-.08-.84-.11a8.39,8.39,0,0,0-.9,0,4.73,4.73,0,0,0-2.87.78,2.53,2.53,0,0,0-1.07,2.14A2.4,2.4,0,0,0,65.9,56a2.52,2.52,0,0,0,.67.8,4.12,4.12,0,0,0,1,.57c.36.15.76.31,1.17.46a9,9,0,0,1,1.79.84,1.09,1.09,0,0,1,.51,1,.87.87,0,0,1-.51.83,3.9,3.9,0,0,1-1.68.27A6.28,6.28,0,0,1,67,60.51l-1-.34-.09,0-.38,1.68.07,0c.19.08.56.19,1.08.33a8.71,8.71,0,0,0,2.21.22A5.81,5.81,0,0,0,72,61.69a2.39,2.39,0,0,0,1.12-2.13,2.87,2.87,0,0,0-.23-1.21,2.35,2.35,0,0,0-.66-.85"/><path class="cls-5" d="M76.75,48.09a1.34,1.34,0,0,0-.91.33,1.25,1.25,0,0,0,0,1.81,1.43,1.43,0,0,0,1.83,0,1.26,1.26,0,0,0,0-1.81,1.34,1.34,0,0,0-.92-.33"/><rect class="cls-5" x="75.74" y="52.17" width="2.06" height="10"/><path class="cls-5" d="M86.89,57.81v2.8a5.85,5.85,0,0,1-.78.09c-.35,0-.75,0-1.18,0a3.48,3.48,0,0,1-1.72-.36,1.29,1.29,0,0,1-.61-1.24,1.16,1.16,0,0,1,.24-.77,1.7,1.7,0,0,1,.63-.47,2.7,2.7,0,0,1,.85-.23,6.89,6.89,0,0,1,.89-.06,7.91,7.91,0,0,1,1.09.07,2.88,2.88,0,0,1,.59.13M88,53a3.27,3.27,0,0,0-1.29-.8,6,6,0,0,0-1.95-.28,11.28,11.28,0,0,0-1.86.14,6,6,0,0,0-1.23.3l-.06,0L81.86,54l.1,0a5.86,5.86,0,0,1,1-.25,9.36,9.36,0,0,1,1.62-.12,3,3,0,0,1,1.15.19,1.78,1.78,0,0,1,.69.5,1.86,1.86,0,0,1,.35.72,3.69,3.69,0,0,1,.1.84v.39l-.18,0-.48-.08-.58-.07a5.4,5.4,0,0,0-.6,0,8.6,8.6,0,0,0-1.72.17,4.81,4.81,0,0,0-1.45.54,2.83,2.83,0,0,0-1,1,2.75,2.75,0,0,0-.37,1.44,3.33,3.33,0,0,0,.31,1.49,2.66,2.66,0,0,0,.88,1,4,4,0,0,0,1.33.55,7.52,7.52,0,0,0,1.66.17c.42,0,.85,0,1.27,0l1.19-.11,1-.12.68-.1h.07V55.77a5.49,5.49,0,0,0-.2-1.54A3,3,0,0,0,88,53"/><path class="cls-5" d="M100.46,53.13a1.39,1.39,0,0,1-.72,1.34,5.72,5.72,0,0,1-2.52.4h-.81V51.49l.31,0h.13l.61,0a5.07,5.07,0,0,1,2.26.4,1.33,1.33,0,0,1,.73,1.3m3.48,7.45c-.28-.49-.58-1-.88-1.44s-.62-.91-.92-1.33-.56-.74-.82-1a4.46,4.46,0,0,0,1.88-1.34,3.59,3.59,0,0,0,.7-2.29,3.66,3.66,0,0,0-1.72-3.33,9.33,9.33,0,0,0-4.89-1.06c-.58,0-1.25,0-2,.08a19.68,19.68,0,0,0-2.15.27h-.07V62.17h3.33V57.39h1.44c.26.29.52.61.78,1s.54.76.82,1.18.55.85.81,1.28l.79,1.31,0,0h3.72l-.06-.12c-.24-.47-.51-1-.79-1.47"/><path class="cls-5" d="M112.88,56h-3.8a3.46,3.46,0,0,1,.17-.6,1.83,1.83,0,0,1,.36-.59,1.73,1.73,0,0,1,.58-.41,2.1,2.1,0,0,1,.84-.15,2,2,0,0,1,.85.16,1.73,1.73,0,0,1,.56.42,1.58,1.58,0,0,1,.33.57,2.45,2.45,0,0,1,.12.59m1.76-2.92A5,5,0,0,0,111,51.79a5.59,5.59,0,0,0-1.93.35,4.93,4.93,0,0,0-1.66,1,5.14,5.14,0,0,0-1.17,1.68,5.8,5.8,0,0,0-.44,2.35,6.17,6.17,0,0,0,.34,2.07,4.31,4.31,0,0,0,1.05,1.67A5.09,5.09,0,0,0,109,62a7.22,7.22,0,0,0,2.53.4c.38,0,.77,0,1.15-.06s.73-.08,1.07-.14a8.79,8.79,0,0,0,.91-.2,4.1,4.1,0,0,0,.66-.23l.06,0-.44-2.45-.1,0a6.34,6.34,0,0,1-1.29.34,9.44,9.44,0,0,1-1.62.14,3.61,3.61,0,0,1-2-.5,1.74,1.74,0,0,1-.82-1.22h6.84V58c0-.15,0-.32,0-.52s0-.39,0-.55a5.21,5.21,0,0,0-1.34-3.87"/></g></g></svg>