<svg width="45" height="46" viewBox="0 0 45 46" fill="none" xmlns="http://www.w3.org/2000/svg">
<g clip-path="url(#clip0_69_5421)">
<g clip-path="url(#clip1_69_5421)">
<g clip-path="url(#clip2_69_5421)">
<path d="M22.4973 43.4137C22.2172 43.4045 21.9401 43.3526 21.6757 43.2598C21.6599 43.2548 21.6446 43.249 21.6292 43.2429C4.34229 36.3838 -1.52581 23.5669 0.327496 13.907C1.59668 7.21639 6.36293 2.89111 12.4701 2.89111C15.7289 2.89111 19.1024 4.11693 22.5046 6.53517C25.8612 4.21978 29.2954 2.99973 32.4704 2.99973C38.5427 2.99973 43.3293 7.2778 44.6653 13.8989C44.6653 13.9012 44.6664 13.9031 44.6668 13.9054C45.6616 19.0297 44.4131 24.6119 41.1521 29.6238C37.4451 35.3211 31.2968 40.0298 23.3716 43.2406C23.3543 43.2475 23.3367 43.254 23.319 43.2602C23.0546 43.353 22.7775 43.4048 22.4973 43.4137ZM22.2563 41.5891C22.3354 41.6164 22.4171 41.6352 22.5004 41.6452C22.5802 41.6344 22.6589 41.6156 22.7357 41.5899C30.3105 38.5162 36.1652 34.0454 39.6695 28.6594C42.6784 24.0351 43.8367 18.9165 42.9313 14.2462C42.3553 11.3939 41.068 8.99832 39.2086 7.31848C37.3622 5.65016 35.0322 4.7686 32.4704 4.7686C29.5049 4.7686 26.2358 6.00363 23.017 8.33974C22.7038 8.56733 22.279 8.56464 21.9689 8.33283C18.7021 5.89655 15.5063 4.66037 12.4705 4.66037C9.9026 4.66037 7.57608 5.54539 5.74273 7.22023C3.88559 8.91619 2.6141 11.3429 2.0649 14.2385C0.348988 23.1804 5.92734 35.1008 22.2563 41.5891Z" fill="#46A748"/>
<path d="M14.7169 15.2157C16.173 15.2222 17.5212 14.4492 18.2508 13.1889C18.9804 11.9289 18.98 10.3746 18.2497 9.11497C17.5189 7.85538 16.1699 7.0832 14.7138 7.09088H14.7111C12.4671 7.09164 10.6491 8.91118 10.6499 11.1548C10.6507 13.3988 12.4702 15.2168 14.7138 15.216L14.7169 15.2157ZM12.4146 11.1548C12.4149 9.88638 13.4439 8.8586 14.7123 8.85937H14.7138C15.9811 8.85937 17.0093 9.88446 17.0131 11.1517C17.0123 12.4201 15.9834 13.4479 14.715 13.4472H14.7134C13.4466 13.4472 12.418 12.4221 12.4142 11.1548H12.4146Z" fill="#46A748"/>
<path d="M32.3604 18.2332H32.3565L28.1472 18.2362C27.1927 18.2385 26.2578 18.5068 25.4476 19.0111C24.8558 18.0662 23.82 17.4921 22.7051 17.4917H22.7027C22.035 17.4917 21.3837 17.6993 20.8391 18.0858C19.8673 16.8726 18.3978 16.1661 16.8435 16.1646H16.8396L12.6303 16.1672C9.80098 16.1707 7.50785 18.4631 7.50439 21.2927L7.50708 26.6765C7.50708 27.165 7.90277 27.5607 8.39133 27.5607H8.39171L9.81825 27.5596L10.2853 35.991C10.3114 36.4592 10.6983 36.8257 11.1673 36.8261C11.1838 36.8261 11.2003 36.8261 11.2164 36.8246C11.7042 36.7977 12.0776 36.3805 12.0507 35.8927L11.5376 26.6258C11.5115 26.1572 11.1239 25.7907 10.6545 25.7907H10.6541L9.27442 25.7919L9.2725 21.2919C9.27557 19.4386 10.7777 17.9376 12.631 17.9361L16.8404 17.933H16.8427C17.9595 17.935 19.0027 18.4907 19.6275 19.416C19.6524 19.4528 19.6754 19.4908 19.6992 19.5288C19.3012 20.5248 19.4241 21.6531 20.0266 22.5404C20.6288 23.4273 21.6324 23.9577 22.7047 23.9554H22.707C24.4459 23.9554 25.8732 22.5799 25.9377 20.8421C25.9742 20.8099 26.0114 20.7781 26.049 20.7474C26.6423 20.2657 27.3838 20.0036 28.1479 20.0051L32.3573 20.002H32.36C34.2118 20.002 35.7147 21.5003 35.7204 23.3525L35.7223 26.8181L34.3426 26.8192C33.8736 26.8196 33.4864 27.1861 33.4603 27.6544L32.9886 36.0681C32.9614 36.5559 33.3344 36.9731 33.8222 37.0007C33.8391 37.0015 33.8556 37.0019 33.8721 37.0019C34.3411 37.0015 34.7283 36.635 34.7544 36.1668L35.1793 28.587L36.6077 28.5862C37.0959 28.5858 37.4912 28.1901 37.4912 27.702L37.4889 23.3517C37.482 20.524 35.1881 18.2347 32.3604 18.2332ZM23.744 21.7571C23.4692 22.033 23.0957 22.1877 22.7062 22.1869H22.7051C22.1796 22.1915 21.6919 21.9137 21.4278 21.4593C21.1638 21.0049 21.1634 20.4438 21.4274 19.989C21.6911 19.5346 22.1785 19.2563 22.7043 19.2606H22.7051C23.5133 19.2602 24.1696 19.9142 24.1723 20.7228C24.1734 21.1108 24.0195 21.4835 23.744 21.7571Z" fill="#46A748"/>
<path d="M30.2331 17.2841C31.7115 17.2829 33.0728 16.4812 33.7904 15.189H34.1025C35.0136 15.1947 35.8579 14.7119 36.315 13.9236C36.7721 13.1357 36.7721 12.1632 36.315 11.3753C35.8579 10.587 35.0136 10.1046 34.1025 10.1099H32.8413C32.1102 9.49548 31.1857 9.1589 30.2304 9.15967H30.2274C27.9837 9.16044 26.1657 10.98 26.1665 13.2232C26.1673 15.4668 27.9868 17.2852 30.2304 17.2841H30.2331ZM34.8735 12.6494C34.8727 13.001 34.6344 13.3076 34.2936 13.3951C34.2963 13.336 34.2978 13.2777 34.2978 13.2182C34.2978 12.7619 34.2199 12.3086 34.0683 11.878H34.1021C34.5281 11.878 34.8731 12.2234 34.8735 12.6494ZM27.9312 13.2236C27.9319 11.9552 28.9609 10.9274 30.2289 10.9282H30.2308C31.4977 10.9282 32.5259 11.9533 32.5297 13.2205C32.5289 14.4889 31.5004 15.5163 30.232 15.5156H30.23C28.9632 15.5156 27.935 14.4905 27.9312 13.2236Z" fill="#46A748"/>
<path d="M23.2122 24.793H23.2088L22.1894 24.796C19.3912 24.8029 17.1246 27.0696 17.1177 29.8678L17.12 33.5437C17.1192 33.8868 17.3184 34.1992 17.63 34.3431L17.2432 40.1521C17.2106 40.6395 17.5794 41.0609 18.0664 41.0932C18.0867 41.0947 18.1067 41.0951 18.1263 41.0951C18.5914 41.0947 18.9767 40.734 19.0078 40.27L19.397 34.4264H19.4285L20.0986 42.1682L21.8605 42.0162L21.1206 33.4654C21.081 33.0083 20.6984 32.6572 20.2394 32.6572H20.239L18.8877 32.6583L18.8862 29.867C18.8935 28.0444 20.3703 26.5695 22.1929 26.5645L23.2118 26.5618H23.2141C25.0367 26.5618 26.5159 28.0367 26.5216 29.8593L26.5231 32.6506L25.1722 32.6514C24.7117 32.6518 24.3283 33.0056 24.2914 33.4646L23.5991 42.0212L25.3618 42.1636L25.7844 36.9475L26.0396 40.2788C26.0749 40.7393 26.4587 41.0951 26.9204 41.0955C26.943 41.0955 26.966 41.0947 26.9891 41.0928C27.4761 41.0556 27.8403 40.6303 27.8031 40.1437L27.3636 34.4184H27.4089C27.8975 34.4184 28.2936 34.0223 28.2932 33.5337L28.2905 29.8578C28.2832 27.0585 26.0119 24.793 23.2122 24.793Z" fill="#46A748"/>
</g>
</g>
</g>
<defs>
<clipPath id="clip0_69_5421">
<rect width="45" height="45" fill="white" transform="translate(0 0.629883)"/>
</clipPath>
<clipPath id="clip1_69_5421">
<rect width="45" height="45" fill="white" transform="translate(0 0.629883)"/>
</clipPath>
<clipPath id="clip2_69_5421">
<rect width="45" height="45" fill="white" transform="translate(0 0.629883)"/>
</clipPath>
</defs>
</svg>
